<svg xmlns="http://www.w3.org/2000/svg" xmlns:xlink="http://www.w3.org/1999/xlink"><symbol id="icon-attach" viewBox="0 0 32 32">
<path fill-rule="evenodd" clip-rule="evenodd" d="M7.18662 13.5L14.7628 5.92389L15.7056 6.8667L8.12943 14.4428L7.18662 13.5Z" fill="#3369F3"/>
<path fill-rule="evenodd" clip-rule="evenodd" d="M9.70067 16.014L17.2768 8.43781L18.2196 9.38062L10.6435 16.9568L9.70067 16.014Z" fill="#3369F3"/>
<path fill-rule="evenodd" clip-rule="evenodd" d="M15.0433 21.3567L22.6195 13.7806L23.5623 14.7234L15.9861 22.2995L15.0433 21.3567Z" fill="#3369F3"/>
<path fill-rule="evenodd" clip-rule="evenodd" d="M17.5574 23.8706L25.1335 16.2945L26.0763 17.2373L18.5002 24.8134L17.5574 23.8706Z" fill="#3369F3"/>
<path fill-rule="evenodd" clip-rule="evenodd" d="M17.5574 23.8709C14.9423 26.486 10.7118 26.4954 8.10831 23.8919C5.50482 21.2884 5.51424 17.0579 8.12936 14.4428L7.18655 13.5C4.0484 16.6381 4.0371 21.7148 7.16129 24.839C10.2855 27.9632 15.3621 27.9518 18.5003 24.8137L17.5574 23.8709Z" fill="#3369F3"/>
<path fill-rule="evenodd" clip-rule="evenodd" d="M22.6195 13.7806L23.5623 14.7234C26.003 12.2826 26.0118 8.3341 23.5819 5.90417C21.152 3.47424 17.2035 3.48304 14.7627 5.92381L15.7055 6.86662C17.6233 4.94887 20.7257 4.94196 22.6349 6.85119C24.5441 8.76042 24.5372 11.8628 22.6195 13.7806Z" fill="#3369F3"/>
<path fill-rule="evenodd" clip-rule="evenodd" d="M9.70092 16.0144C7.95751 17.7578 7.95123 20.5782 9.68689 22.3138C11.4226 24.0495 14.2429 24.0432 15.9863 22.2998L15.0435 21.357C13.8231 22.5774 11.8489 22.5818 10.6339 21.3668C9.41894 20.1518 9.42334 18.1776 10.6437 16.9572L9.70092 16.0144Z" fill="#3369F3"/>
</symbol><symbol id="icon-close" viewBox="0 0 20 20"><path d="M.293 18.291a1 1 0 101.414 1.414L10 11.413l8.292 8.292a1 1 0 101.414-1.414l-8.292-8.292 8.292-8.292A1 1 0 1018.291.293L9.999 8.585 1.707.293A1 1 0 10.293 1.707L8.585 10 .293 18.291z"/></symbol><symbol id="icon-profile" viewBox="0 0 6 10">
  <path d="M1 9L5 5L1 1" fill="currentColor"/>
</symbol><symbol id="icon-read" viewBox="0 0 11 5">
<line y1="-0.5" x2="3.765" y2="-0.5" transform="matrix(0.705933 0.708278 -0.705933 0.708278 0.700195 2.33313)" stroke="currentColor"/>
<line y1="-0.5" x2="5.6475" y2="-0.5" transform="matrix(0.705933 -0.708278 0.705933 0.708278 3.35828 5)" stroke="currentColor"/>
<line y1="-0.5" x2="5.6475" y2="-0.5" transform="matrix(0.705933 -0.708278 0.705933 0.708278 6.01587 5)" stroke="currentColor"/>
</symbol><symbol id="icon-submit" viewBox="0 0 28 28">
<circle cx="14" cy="14" r="14" fill="#3369F3"/>
<rect x="8" y="13.2" width="11" height="1.6" fill="white"/>
<path d="M15 9L19 14L15 19" stroke="white" stroke-width="1.6"/>
</symbol><symbol id="icon-toggle" viewBox="0 0 28 28">
<circle cx="14" cy="14" r="14" transform="rotate(-180 14 14)" fill="#3369F3"/>
<rect x="20" y="14.8" width="11" height="1.6" transform="rotate(-180 20 14.8)" fill="white"/>
<path d="M13 19L9 14L13 9" stroke="white" stroke-width="1.6"/>
</symbol><symbol id="icon-usermenu" viewBox="0 0 3 16">
<circle cx="1.5" cy="2" r="1.5" fill="currentColor"/>
<circle cx="1.5" cy="8" r="1.5" fill="currentColor"/>
<circle cx="1.5" cy="14" r="1.5" fill="currentColor"/>
</symbol></svg>